<svg id="Capa_1" data-name="Capa 1" xmlns="http://www.w3.org/2000/svg" viewBox="0 0 16 16"><defs><style>.cls-1{fill:#fcd9af;}.cls-2{fill:#020202;}.cls-3{fill:#040404;}.cls-4{fill:#0a0a0a;}.cls-5{fill:#060606;}.cls-6{fill:#080808;}.cls-7{fill:#0b0b0b;}.cls-8{fill:#151515;}.cls-9{fill:#0f0f0f;}.cls-10{fill:#0c0c0c;}.cls-11{fill:#090909;}.cls-12{fill:#070707;}.cls-13{fill:#0d0d0d;}.cls-14{fill:#936a58;}.cls-15{fill:#916b58;}.cls-16{fill:#101010;}.cls-17{fill:#050505;}.cls-18{fill:#946956;}.cls-19{fill:#966858;}.cls-20{fill:#030303;}.cls-21{fill:#141414;}.cls-22{fill:#111;}.cls-23{fill:#121212;}.cls-24{fill:#1a1a1a;}.cls-25{fill:#f5f5f5;}.cls-26{fill:#1c1c1c;}.cls-27{fill:#161616;}.cls-28{fill:#0e0708;}.cls-29{fill:#0e0e0e;}.cls-30{fill:#080606;}.cls-31{fill:#0f0c0d;}.cls-32{fill:#171717;}.cls-33{fill:#1b1616;}.cls-34{fill:#1f1f1f;}.cls-35{fill:#ebaba5;}.cls-36{fill:#ebaba8;}.cls-37{fill:#e5aeab;}.cls-38{fill:#e6aca5;}.cls-39{fill:#daaeaa;}.cls-40{fill:#dbaead;}.cls-41{fill:#e5baba;}.cls-42{fill:#e4c1be;}.cls-43{fill:#d1a2a1;}.cls-44{fill:#f0b6b1;}.cls-45{fill:#ddabab;}.cls-46{fill:#120c0b;}.cls-47{fill:#c6a4a2;}.cls-48{fill:#e1aead;}.cls-49{fill:#1c0a0a;}.cls-50{fill:#d09b95;}.cls-51{fill:#e4aea8;}.cls-52{fill:#e6a6a2;}.cls-53{fill:#edaaa3;}.cls-54{fill:#f2acac;}.cls-55{fill:#eaa99e;}.cls-56{fill:#e2baba;}.cls-57{fill:#eeaaa6;}.cls-58{fill:#eea8a3;}.cls-59{fill:#cee6c6;}.cls-60{fill:#a2c6ea;}.cls-61{fill:#fff;}.cls-62{fill:#91c4d5;}.cls-63{fill:#fbdfde;}</style></defs><circle class="cls-1" cx="8.02" cy="8.09" r="6.5"/><path class="cls-2" d="M7.08,12.23h-1c-.08,0-.14,0-.11-.12s.08,0,.11,0c.22,0,.43,0,.65,0s.12,0,.12-.1V7.73a.07.07,0,0,0,0-.05s-.11,0-.17,0H4.89c-.07,0-.14,0-.18,0a.14.14,0,0,1,0-.11l0,0c.71,0,1.41,0,2.12,0h.16a.14.14,0,0,1,.14.12c0,.08-.07.06-.1.1a.08.08,0,0,0,0,.07c0,1.33,0,2.66,0,4a.58.58,0,0,0,0,.23.13.13,0,0,0,.12,0h.62c.1,0,.14,0,.14-.15,0-.8,0-1.6,0-2.4a.11.11,0,0,1,0-.14c.07,0,.11,0,.15.05s0,.1,0,.15v2.36c0,.13,0,.16.15.15H10c.05,0,.12,0,.13.07s0,.13-.13.13H7.17S7.11,12.25,7.08,12.23Z"/><path class="cls-2" d="M8.16,9.39c-.07,0-.17-.12-.18.06a.9.9,0,0,1-.49,0c-.07,0-.1-.08-.1-.15,0-.46,0-.93,0-1.39a.18.18,0,0,1,0-.07,1.3,1.3,0,0,1,.34,0c.06,0,.12,0,.18,0s0-.1,0-.15c0-.25,0-.5,0-.75a.29.29,0,0,0,0-.14c-.07.09-.17.06-.25.06l0,0c-.07,0,0-.09,0-.14l.09,0h2.87c.09,0,.18,0,.21.1s-.09.07-.14.07H8.32c-.05,0-.13,0-.16,0,0,.29,0,.57,0,.86,0,0,0,.1,0,.15s.09,0,.14,0H9.64s.1,0,.14,0a.09.09,0,0,0,.06.06s0,0,.06.07l0,.07-.1.09h0a1.14,1.14,0,0,0-.19-.1H7.79c-.1,0-.14,0-.14.15v.86c0,.18,0,.18.18.18H9a.59.59,0,0,1,.19,0l0,0s0,0,0,0a2.54,2.54,0,0,1-.48,0c-.17,0-.33,0-.5,0Z"/><path class="cls-3" d="M7.72,6.66l0,.06a.08.08,0,0,1-.1,0,.38.38,0,0,1,0-.18c0-.25,0-.49,0-.73s0-.33,0-.5,0-.27,0-.41a.17.17,0,0,1,.07-.17c.14,0,.3,0,.44,0-.13-.11,0-.27-.08-.4l0,0c-.29,0-.58,0-.88,0H7a.17.17,0,0,1-.1,0c0-.06,0-.1,0-.15.38,0,.76,0,1.15,0,.06,0,.05,0,.05.09s0,.34,0,.51.11.06.16.06h2.29a.48.48,0,0,1,.31.07l.2.2a1,1,0,0,1,.13.22c0,.07,0,.14-.07.17h0a2.88,2.88,0,0,1-.22-.27c-.06-.07-.1-.17-.2-.21a4.47,4.47,0,0,0-.52,0H8c-.23,0-.23,0-.23.22V6.44A.35.35,0,0,1,7.72,6.66Z"/><path class="cls-4" d="M7.72,6.66V5c0-.11,0-.13.13-.13h2.83s.09,0,.12,0-.14,0-.21,0q-1.26,0-2.52,0c-.08,0-.17,0-.24,0s0,.09,0,.14V6.45s0,.09,0,.12a.66.66,0,0,0,.2,0h2.49a.48.48,0,0,0,.24,0A.56.56,0,0,0,11,6.39s.05-.09.11-.09a.24.24,0,0,1,.11.13.38.38,0,0,1-.16.23l-.12.12s0,0-.06-.06a.15.15,0,0,0-.14-.06H7.86S7.77,6.69,7.72,6.66Z"/><path class="cls-5" d="M4.56,6.22l.14-.14a.24.24,0,0,1,.14,0H6.39l.14,0c.08,0,.07.07,0,.11a.17.17,0,0,0,0,.05v0s0,0,0,0,0,0,0,0a.06.06,0,0,1,0,0,.14.14,0,0,1-.1.06.2.2,0,0,1-.13,0c0-.07,0-.09,0-.13a.17.17,0,0,0-.2,0l0,0a.58.58,0,0,1-.18,0,8.51,8.51,0,0,0-1,0c-.11,0-.15.17-.27.2s0-.08,0-.11S4.55,6.26,4.56,6.22Z"/><path class="cls-6" d="M10.48,8.75l-.09.08c-.06,0-.06.05-.08.09l0,0a3.49,3.49,0,0,1-.43.43.29.29,0,0,1-.27.06s0-.06,0-.08a.71.71,0,0,1,.07-.09.69.69,0,0,1,.11-.13l0,0,.06-.05h0c.06,0,.17,0,.12-.11s0-.05,0-.07,0,0,0,0a.27.27,0,0,0,.08-.07l.07-.06s0,0,0-.07a.22.22,0,0,1,0-.08c0-.07,0-.13.11-.14a.73.73,0,0,0,.18.17C10.55,8.66,10.55,8.71,10.48,8.75Z"/><path class="cls-7" d="M4.33,6.4h0a0,0,0,0,1,0,0s.06.06.05.1a1.67,1.67,0,0,1-.25.28c-.09.07,0,.13,0,.18l0,0v.07s0,.07-.06.08S4.06,7,4,7s-.06-.13,0-.19l.23-.24S4.27,6.42,4.33,6.4Z"/><path class="cls-5" d="M9.64,9.39l-.06.06H8.34c-.05,0-.11,0-.15,0h0c-.05,0,0-.06,0-.09v0c.29,0,.58,0,.87,0a.25.25,0,0,0,.17,0h0s.08,0,.05-.1a0,0,0,0,1,0,0,.44.44,0,0,1,.13-.14h0s0-.05.06-.07.09,0,.13,0-.07.17-.13.25,0,.05,0,.05S9.62,9.33,9.64,9.39Z"/><path class="cls-4" d="M11.61,5.67l0,.06s0,.08,0,.12l-.19.25a.07.07,0,0,1-.07.06s-.12.06-.17,0a.16.16,0,0,1,0-.1.32.32,0,0,1,.1-.13c.08-.07.14-.15,0-.25v0a.08.08,0,0,1,0,0c.06,0,0-.11.05-.16s.1,0,.14.1A.21.21,0,0,1,11.61,5.67Z"/><path class="cls-8" d="M4.73,6.05h2c.1,0,.12,0,.12-.13V4.27c0-.07,0-.13,0-.19h0a.05.05,0,0,1,0,0c0,.59,0,1.19,0,1.78,0,.18-.06.23-.24.21l-.24,0H4.7Z"/><path class="cls-9" d="M5.52,12.2a4.28,4.28,0,0,1-.62,0,.1.1,0,0,1-.08-.05c0-.08,0-.13.09-.13h.54C5.58,12,5.55,12.12,5.52,12.2Z"/><path class="cls-10" d="M4.21,7.16l0-.1h.1a.38.38,0,0,1,.22.17,1.08,1.08,0,0,1,.18.24v.1a.09.09,0,0,1-.06,0s-.06-.07-.11-.07Z"/><path class="cls-9" d="M10.92,4.8s-.06,0-.08,0-.16-.07-.25-.07H8.3c-.05,0-.13,0-.14-.07,0,.07.1,0,.16,0h2.41C10.8,4.72,10.89,4.69,10.92,4.8Z"/><path class="cls-11" d="M10.33,8.43c0,.05-.08.08-.08.14s-.13-.08-.19-.12a.84.84,0,0,1-.15-.18s0-.07-.06-.09h0c0-.07,0-.1.1-.09A2.57,2.57,0,0,1,10.33,8.43Z"/><path class="cls-12" d="M10.83,6.72a.09.09,0,0,1,.06.06c-.05,0-.11,0-.17,0H8.32c-.05,0-.12,0-.16,0s.09-.06.14-.06h2.37C10.73,6.77,10.8,6.81,10.83,6.72Z"/><path class="cls-10" d="M6.89,4.11v0s.1,0,.15,0c.36,0,.73,0,1.09,0H7l0,0A.08.08,0,0,1,6.89,4.11Z"/><path class="cls-6" d="M4.42,6.43l0,0c0-.08.12-.11.18-.17s.1.06,0,.11-.08,0,0,.1,0,0,0,0S4.44,6.44,4.42,6.43Z"/><path class="cls-13" d="M10.31,8.92s-.06-.08,0-.12.06,0,.09,0A.11.11,0,0,1,10.31,8.92Z"/><path class="cls-14" d="M4.51,6.46l0,0,.23-.21c.35,0,.7,0,1,0a0,0,0,0,1,0,0,.21.21,0,0,1-.06.1s-.08.07-.13.07-.09,0-.05.06,0,.06.05.07.1-.11.19-.1.17,0,.21.1l0,0,0,0c.1.08.11,0,.12-.06a.05.05,0,0,1,0,0,.27.27,0,0,0,.14-.14v0s0,0,0,0l0,0c.07-.06.15,0,.22,0s.08,0,.09,0,0,.06-.05.07,0,0,0,0,.1.1,0,.16a0,0,0,0,0,0,0c.09,0,.11.07.17.07a.13.13,0,0,0,.13-.1s0-.11.09-.09.06.08.06.13c0,.28,0,.57,0,.85,0,.05,0,.1-.08.1H4.77l0,0a2.73,2.73,0,0,1-.23-.25.67.67,0,0,0-.19-.14A.27.27,0,0,1,4.24,7V7a.44.44,0,0,1,0-.2,1.66,1.66,0,0,1,.26-.27S4.48,6.46,4.51,6.46Z"/><path class="cls-15" d="M7,12c0-.15,0-.3,0-.45V7.8s0-.06,0-.1.14-.08.22,0,.07-.06.12,0,0,.16,0,.23c0,.42,0,.83,0,1.25,0,.08,0,.17,0,.26s0,.1.1.08.23,0,.34,0,.15,0,.15.16c0,.37,0,.74,0,1.11,0,.08-.08.06-.12,0s-.1,0-.16,0,0,.08,0,.12a4.47,4.47,0,0,0,0,.52,1.17,1.17,0,0,0,0,.32c0,.06,0,.07,0,.07s.16-.08.23.05a.17.17,0,0,1-.07.23C7.56,12,7.29,12.06,7,12Z"/><path class="cls-5" d="M4.77,7.48H7.06s.08,0,.11,0a5.66,5.66,0,0,0,0-1.09.31.31,0,0,1,0-.1.07.07,0,0,1,0-.06c-.13,0-.25,0-.36,0s.09-.09.14-.13a1.15,1.15,0,0,1,.32,0,.09.09,0,0,1,.06,0,1.78,1.78,0,0,1,0,.61c0,.28,0,.56,0,.85-.08.12-.17.15-.37.1,0-.06.1,0,.14,0S7.06,7.5,7,7.5h-2S4.81,7.52,4.77,7.48Z"/><path class="cls-14" d="M7,12h.84c.08-.06.07-.14.07-.23,0-.29,0-.58,0-.87a.39.39,0,0,1,0-.18,1,1,0,0,1,0-.3c0-.27,0-.54,0-.81,0-.11,0-.18-.16-.16s-.25,0-.36,0-.1,0-.08-.07a2.09,2.09,0,0,0,0-.56,2.08,2.08,0,0,1,0-.35,3.33,3.33,0,0,0,0-.63,0,0,0,0,1,0-.06s0,0,0,.06c0,.47,0,.93,0,1.4,0,.11,0,.15.15.14H8s0,.08,0,.12v2.37c0,.09,0,.12-.12.12H7.13S7.05,12.08,7,12Z"/><path class="cls-16" d="M4.67,7.6a.06.06,0,0,1,.06,0c0,.09.09.05.14.05H6.69s.12,0,.16,0h-2C4.78,7.64,4.71,7.67,4.67,7.6Z"/><path class="cls-14" d="M7,7.65a1.33,1.33,0,0,1,.2,0,.14.14,0,0,0,.14-.09s0,0,0,0,0,0,0,0a.12.12,0,0,1-.07.07c-.1.07-.23,0-.34,0Z"/><ellipse class="cls-17" cx="8.11" cy="10.98" rx="0.01" ry="0.45"/><path class="cls-18" d="M9.61,9s-.08-.07-.12,0,0,.06-.06.06h0s0,0-.06,0-.11,0-.08.12h0a.09.09,0,0,1-.1.06H7.83c-.07,0-.13,0-.12-.09a.14.14,0,0,1,.07-.08s.09-.06,0-.1,0,.1-.07.14-.05.06-.09.07,0-.11,0-.15V9a.12.12,0,0,0,0-.14v0a.06.06,0,0,0,0,0c0-.17,0-.3.21-.34,0,0,0,0,0-.05a.47.47,0,0,1,0-.17c0-.11.1-.14.22-.14H9.53a.32.32,0,0,1,.14,0,.24.24,0,0,1,.14.12,1.39,1.39,0,0,0,.27.32s0,.12.08.09.06.05.05.09a.74.74,0,0,1,0,.14s-.09,0-.07.06l0,0c0,.06-.15,0-.12.14s0,.05,0,.07h0s-.06,0-.06-.07,0,.09,0,.13h0C9.71,9.16,9.69,9,9.61,9Z"/><path class="cls-14" d="M7.37,6.69c0-.2,0-.41,0-.61s.12-.09.2-.1,0,0,0,0a2.47,2.47,0,0,1,0,.47c-.05-.06,0-.13,0-.18a.86.86,0,0,0,0,.27c0,.11-.1.15-.12.24h0c0-.09.09-.09.16-.05l0,0h0c.1,0,.21,0,.32,0,0,.31,0,.62,0,.94,0,.06,0,.08-.1.08H7.57A.06.06,0,0,1,7.5,7.8a.54.54,0,0,1,0-.18c0-.1-.06,0-.07-.06h0a.1.1,0,0,1,0-.12s0,0,0,0a0,0,0,0,0,0,0c-.06.06-.09.05-.09,0V6.83S7.41,6.73,7.37,6.69Z"/><path class="cls-14" d="M9.67,8.05H8c-.06,0-.06,0-.07.07s-.07,0-.08.07-.13.07,0,.16,0,.07,0,.08a.21.21,0,0,0-.21.23s0,.08,0,.11a1.61,1.61,0,0,1,0-.38s0,0,0,0c0-.34,0-.34.3-.34H9.53C9.58,8,9.63,8,9.67,8.05Z"/><path class="cls-2" d="M9.2,9.33c0,.07-.07.09-.14.09H8.33c-.07,0-.11-.05-.17-.06s.07,0,.1,0Z"/><path class="cls-14" d="M7.61,9.07h0c0,.05,0,.11.1.07h0c0,.11.07.12.16.12H7.81C7.59,9.3,7.59,9.3,7.61,9.07Z"/><path class="cls-15" d="M7.43,7.56c.07,0,.13-.06.1.06s.06.15,0,.22,0,0-.06,0l0,0a.06.06,0,0,1,0-.06.13.13,0,0,1,0-.2C7.37,7.6,7.41,7.59,7.43,7.56Z"/><path class="cls-14" d="M7.46,7.88l.06,0h.35c.09,0,.12,0,.11-.12v-.9a0,0,0,0,1,0,0c0,.32,0,.64,0,1C7.83,7.9,7.64,7.84,7.46,7.88Z"/><path class="cls-19" d="M8,7.85V7s0-.09,0-.13-.2,0-.3,0c.1,0,.22.06.29-.08,0,.06.1,0,.09.11,0,.32,0,.63,0,.94A.15.15,0,0,1,8,7.85Z"/><path class="cls-14" d="M10.07,8.49s-.06-.1-.12,0,0,0,0,0-.1-.17-.09-.27h0c.05,0,.06.05.09.09l.15.16A.06.06,0,0,1,10.07,8.49Z"/><path class="cls-2" d="M9.2,9.29v0s0,0,.06,0l.07.09-.13,0Z"/><path class="cls-2" d="M7.73,9.38s.06-.06.1,0,0,0,0,0S7.76,9.37,7.73,9.38Z"/><path class="cls-2" d="M7.72,9.39c-.06,0-.11,0-.14,0A.24.24,0,0,0,7.72,9.39Z"/><path class="cls-2" d="M8,9.37s0,0,0,0,0,0,0,0,0,0,0,0A0,0,0,0,1,8,9.37Z"/><path class="cls-15" d="M7.61,8.81s.08.09,0,.14A.22.22,0,0,1,7.61,8.81Z"/><path class="cls-12" d="M7.66,6.8h0s0,0,0-.08h.09S7.63,6.76,7.66,6.8Z"/><path class="cls-11" d="M8.23,7.94s-.07,0-.11,0S8.19,7.94,8.23,7.94Z"/><path class="cls-14" d="M7.61,8.37s.06,0,.08.07l-.08,0Z"/><path class="cls-18" d="M11.32,5.93l-.09.12h0c-.08,0-.08,0-.05.11s0,.12-.11.14L11,6.4c-.05,0-.05-.05-.08-.06s-.06.12-.13.14a3.17,3.17,0,0,1-.53,0c-.12,0-.18-.06-.16-.17s0-.16,0-.25,0-.15,0-.23a.72.72,0,0,0,.06-.46c.05,0,.08-.07.13-.07a.05.05,0,0,1,0,.05.08.08,0,0,0-.1-.07c-.11,0-.11,0-.11-.12s0-.21.2-.21h.42c.07,0,.14,0,.16.09s.08,0,.12,0a1.28,1.28,0,0,1,.2.26.13.13,0,0,0,.08.15,1.27,1.27,0,0,1,.13.11h0C11.41,5.74,11.33,5.83,11.32,5.93Z"/><path class="cls-14" d="M7.6,6.72s0,0,0,.08a.13.13,0,0,0-.19.09,1.15,1.15,0,0,0,.06-.69c.08,0,0,.09.06.13s0,.08,0,.15c0-.16,0-.28,0-.41S7.54,6,7.5,6l-.16.07h0c-.09,0-.18,0-.27,0a.13.13,0,0,1,.13-.15h.13c.2,0,.19,0,.2-.23s0-.12-.12-.13-.08,0-.12,0-.17,0-.14-.18,0-.05,0-.07a.31.31,0,0,1,.08-.35s.1,0,.13-.09a.78.78,0,0,0,0-.34s-.08,0-.12-.07S7.08,4.3,7,4.24s0,0,0,0H7c.27,0,.55,0,.82,0,0,0,.1,0,.15,0H8a2.26,2.26,0,0,1,0,.45c0,.06,0,.06-.09.06a1.41,1.41,0,0,0-.29,0c-.05,0-.05,0-.05.08v.5a3.23,3.23,0,0,0,0,.44C7.59,6.08,7.58,6.4,7.6,6.72Z"/><path class="cls-19" d="M11,5.12c-.07,0-.15.18-.16,0,0-.06,0-.06-.08-.06h-.64a.5.5,0,0,1,0,.16c0,.1,0,.12.09.12s.1.1.09.19,0-.11-.08-.14,0,.07-.09.06-.13-.1-.19-.16a.16.16,0,0,0-.08-.06h0a.16.16,0,0,0-.15,0,.82.82,0,0,0-.2.12c-.12,0-.19,0-.28-.08a.26.26,0,0,0-.21,0c-.1,0-.15.11-.24.13l-.06,0c-.06-.18,0-.27.18-.29a1.94,1.94,0,0,1,.24,0s.07,0,.09,0,.2.07.31,0a4.73,4.73,0,0,0-.53,0,5.43,5.43,0,0,1-.57,0l0,0c0-.08-.05,0-.08,0S8.08,5,8,4.89H10.8C10.84,5,10.92,5,11,5.12Z"/><path class="cls-20" d="M7,6.08c0,.09-.13,0-.15.11a.5.5,0,0,1-.38,0s.07,0,.1-.07-.09,0-.12,0h.12c.31,0,.31,0,.31-.32,0-.55,0-1.1,0-1.65,0,0,.05,0,.08,0s-.06.08,0,.12.06.1.06.16c0,.51,0,1,0,1.53C7,6,7,6,7,6.08Z"/><path class="cls-10" d="M7,6.08l-.06,0c.1,0,0-.15,0-.22,0-.52,0-1,0-1.57,0,0,0,0,0,0s0,0,.07,0v0a.28.28,0,0,1,0,.18c0,.34,0,.69,0,1,0,.11,0,.23,0,.36A.43.43,0,0,1,7,6c.08.09.19,0,.27.05A1,1,0,0,1,7,6.08Z"/><path class="cls-12" d="M11.24,5.23l.17.21c0,.06.1.16-.05.17s-.18-.1-.19-.22A.37.37,0,0,0,11.24,5.23Z"/><path class="cls-17" d="M7.65,4.74a.27.27,0,0,1,.2,0c.14,0,.18,0,.16-.17s0-.22,0-.33a.66.66,0,0,1,0,.34c0,.07,0,.08.1.06C8,4.82,7.81,4.72,7.65,4.74Z"/><path class="cls-10" d="M8,4.22a1.41,1.41,0,0,0-.41,0A2.63,2.63,0,0,1,7,4.2h.9S8,4.19,8,4.22Z"/><path class="cls-19" d="M11.17,5.39l.19.22v0a.44.44,0,0,1-.25-.2c0-.07,0,0,0-.06Z"/><path class="cls-12" d="M7.6,5.76a.93.93,0,0,1,0-.44A2.16,2.16,0,0,1,7.6,5.76Z"/><path class="cls-17" d="M9.84,4.79h0Z"/><path class="cls-17" d="M8.15,4.78h.29v0H8.15Z"/><path class="cls-7" d="M11,5s0,0,0,0,0,0,0,0,0,0,0,0Z"/><path class="cls-19" d="M8,4.89a0,0,0,0,1,0,0A5.27,5.27,0,0,0,9.36,5c.09,0,.12.07.2,0a.49.49,0,0,0-.23.11s-.11,0-.12,0,0-.06-.09-.07-.25,0-.39,0-.12.13-.05.23c-.14.13-.11.3-.11.46s0,0,0,0h0c0-.07-.07-.17.05-.21s0,.1,0,.15a1.11,1.11,0,0,0,.09.19A.18.18,0,0,0,8.81,6L8.87,6l.06,0s.09.08.12.14.06.07.1.07a.35.35,0,0,0,.37.06.13.13,0,0,0,.12,0s.06.08.09,0,.17-.25.34-.25c0,.11.06.21,0,.32s0,.09.09.08.31,0,.46,0,.1,0,.15,0,0,0,0,.09,0,.09-.1.09H7.78c0-.18,0-.22.18-.17,0,0,.06,0,.07,0a.12.12,0,0,0,0-.14l0,0H7.87c-.07,0-.1,0-.1-.11,0-.35,0-.7,0-1,0-.07,0-.15,0-.22Z"/><path class="cls-19" d="M7.78,4.89a2.33,2.33,0,0,1,0,.59c0,.2,0,.4,0,.61s0,.17.15.15.1,0,.1,0-.09,0-.07.11,0-.09.07-.11a.13.13,0,0,1,0,.19c0,.07-.1,0-.15,0s-.13,0-.13.15,0-.06,0-.1V5S7.73,4.9,7.78,4.89Z"/><path class="cls-11" d="M11.06,6.31l.09-.14s0,0,0,0,.12,0,.17,0l-.16.26,0,0C11.14,6.38,11.06,6.37,11.06,6.31Z"/><path class="cls-19" d="M10.83,6.55s0-.07,0-.09.13,0,0-.12l.06,0s0,0,0,0l0,.06C10.94,6.46,10.91,6.53,10.83,6.55Z"/><path class="cls-14" d="M7.2,6.22c0,.4,0,.79,0,1.19,0,0,0,0,0,.06a7.18,7.18,0,0,0,0-1A.31.31,0,0,1,7,6.65s0,0,0,0-.2-.09-.21-.22.06.07.1,0,0-.06,0-.09,0-.06-.09-.07.12,0,.16-.07h-.3v0A3.18,3.18,0,0,1,7.2,6.22Z"/><path class="cls-14" d="M6.05,6.6c0-.11-.18,0-.21-.14s.1-.14.17-.18H6a.18.18,0,0,1,.27,0l-.11.11s-.06.07-.08.12S6.08,6.56,6.05,6.6Z"/><path class="cls-14" d="M6,6.28c0,.08-.14.09-.17.18s-.1.15-.21.14a.21.21,0,0,1,0-.11.07.07,0,0,1,0-.07.15.15,0,0,0,.12-.08.1.1,0,0,1,0-.06l.07,0A.12.12,0,0,1,6,6.28Z"/><path class="cls-15" d="M6.07,6.45a.15.15,0,0,1,.1-.09l.17,0c0,.06,0,.08-.08.11s-.06.1-.13.1l-.06,0Z"/><path class="cls-8" d="M5.87,6.25s0,0-.07,0,0-.06,0-.06h-1s.08,0,.12,0h.86S5.85,6.17,5.87,6.25Z"/><path class="cls-10" d="M7.2,6.22H6.51l0,0h.38c.13,0,.25,0,.38,0h0Z"/><path class="cls-14" d="M6.28,6.25a.2.2,0,0,0-.27,0c0-.07.23-.14.29-.09S6.32,6.24,6.28,6.25Z"/><path class="cls-14" d="M6.47,6.28l0,0s-.07,0,0-.06S6.44,6.25,6.47,6.28Z"/><path class="cls-14" d="M9.61,9c.13,0,.13.11.21.15L9.7,9.3a.46.46,0,0,1-.2,0c-.05,0-.06,0,0-.07S9.64,9.13,9.61,9Z"/><path class="cls-14" d="M10.07,8.49V8.42l.17.15s0,0,.06.06,0,.09-.06.12,0,.06-.06.06,0,0,0,0a.18.18,0,0,1,0-.14,0,0,0,0,0,0-.06c-.05,0,0,0,0,.07S10,8.56,10.07,8.49Z"/><path class="cls-13" d="M9.9,9.1l0-.06S10,8.93,10,9s.11,0,.07.08S10,9.15,9.9,9.1Z"/><path class="cls-9" d="M9.46,9.24c.06.12.16,0,.24.06s-.07,0-.06.09a.15.15,0,0,0-.15-.06s-.06,0-.08,0S9.43,9.26,9.46,9.24Z"/><path class="cls-14" d="M10,9,9.93,9s0-.07-.08-.15c.11.08.16,0,.22,0Z"/><path class="cls-14" d="M10.16,8.8h0l-.09.06s-.07,0,0-.06S10.12,8.81,10.16,8.8Z"/><path class="cls-14" d="M9.82,9.16l0-.14.09.08A.06.06,0,0,1,9.82,9.16Z"/><path class="cls-13" d="M10.25,8.75s.09-.05.06-.12S10.32,8.73,10.25,8.75Z"/><path class="cls-5" d="M9.14,12.63h-1s-.1,0-.1-.07,0-.09.1-.09h1c.12,0,.07.08.07.14Z"/><path class="cls-14" d="M4.21,6.78c.08.06,0,.13,0,.2S4.05,6.87,4.21,6.78Z"/><path class="cls-21" d="M4.24,7s.08,0,.08.07-.05,0-.08,0Z"/><path class="cls-10" d="M4.51,6.46s0,0,0,0l0-.08Z"/><path class="cls-14" d="M9.26,9.21c0-.05-.1-.08-.06-.17.06.06.13,0,.2,0A.47.47,0,0,1,9.26,9.21Z"/><path class="cls-22" d="M9.43,9.06,9.49,9s0,.05,0,.07S9.45,9.07,9.43,9.06Z"/><path class="cls-19" d="M11.32,5.93c-.05-.1,0-.19,0-.29C11.48,5.78,11.48,5.78,11.32,5.93Z"/><path class="cls-19" d="M11.19,6.13l0,0,0,0s-.07,0-.05-.06.05-.05.08,0,.05,0,.07,0Z"/><path class="cls-23" d="M9.93,8.26a.2.2,0,0,1-.09-.09C9.94,8.12,9.92,8.2,9.93,8.26Z"/><path class="cls-24" d="M6.88,7.33c0-.06-.06-.11,0-.16s.08,0,.11,0,0,.1,0,.14A.1.1,0,0,1,6.88,7.33Z"/><path class="cls-14" d="M6.13,6.61c.06,0,.07-.1.13-.1s0,.13,0,.16A.06.06,0,0,1,6.13,6.61Z"/><path class="cls-14" d="M5,6.4a.14.14,0,0,1-.12-.08,0,0,0,0,1,0,0C4.93,6.29,4.93,6.34,5,6.4Z"/><path class="cls-14" d="M5.64,6.43l0,.05s0,0,0,0-.07,0,0-.1.06,0,.09,0A0,0,0,0,1,5.64,6.43Z"/><path class="cls-14" d="M6.88,7.33H7s.08.11,0,.09S6.9,7.36,6.88,7.33Z"/><path class="cls-25" d="M5.85,6.58l0,0s0,0,0,0l0,0Z"/><path class="cls-14" d="M5.64,6.43v0l.11-.06C5.75,6.41,5.71,6.43,5.64,6.43Z"/><path class="cls-9" d="M5.58,6.49h0l0,.12C5.56,6.59,5.57,6.54,5.58,6.49Z"/><path class="cls-15" d="M8,10.75c0,.39,0,.78,0,1.16C8,12,8,12,7.87,12v-.1c0-.16,0-.19-.19-.15s-.06,0-.1,0,.1,0,.12-.07a.26.26,0,0,0,.07-.15c0-.22,0-.44,0-.65a.06.06,0,0,0,0-.06,1,1,0,0,0,0,.34c0,.07,0,.15-.07.19,0-.21,0-.42,0-.62,0,0,0-.08.06-.07s.19-.06.26.06S8,10.77,8,10.75Z"/><path class="cls-18" d="M7.64,11.37a2.68,2.68,0,0,0,0-.49c0-.06,0-.13.08-.12s.07.06.07.12c0,.23,0,.47,0,.7s0,.13-.12.12S7.66,11.48,7.64,11.37Z"/><path class="cls-14" d="M7.88,10.6V9.74h0v.86Z"/><path class="cls-14" d="M7.37,6.69c.06.07,0,.15,0,.23s0,.34,0,.52c0,0,.07-.05.13,0a.31.31,0,0,0-.1.15H7.37Q7.36,7.13,7.37,6.69Z"/><path class="cls-26" d="M7.87,8.36c-.08,0-.15,0-.14-.09s.09-.1.16-.07A.15.15,0,0,1,7.87,8.36Z"/><path class="cls-27" d="M7.81,9c.11.07.11.11,0,.18s-.08,0-.08-.08S7.74,9,7.81,9Z"/><path class="cls-14" d="M7.81,9c-.11.06-.12.12,0,.18s-.06,0-.09,0h0C7.68,9,7.7,9,7.81,9Z"/><path class="cls-14" d="M7.44,7.35V7.17C7.48,7.24,7.45,7.29,7.44,7.35Z"/><path class="cls-28" d="M9,6.22s-.12-.06-.13-.14,0,0,0-.08a.1.1,0,0,1,0,0S9,6,9,6L9,6l.07.06v0s0,.1.05,0,.07,0,.11.07a.17.17,0,0,0,.14,0l.09-.05.06-.07A.65.65,0,0,1,9.73,6l0,0a.82.82,0,0,0,.16-.25.23.23,0,0,0,0-.2s0-.07-.08-.08l-.07,0a.12.12,0,0,0-.1,0l-.05,0a.1.1,0,0,1-.09,0,.2.2,0,0,1-.09-.13.29.29,0,0,1,.21-.11.17.17,0,0,1,.17,0h0s.1,0,.12.06.13.1.17.18A.58.58,0,0,1,10,5.9a1,1,0,0,1-.51.47c-.15.11-.27,0-.39-.06S9.05,6.28,9,6.22Z"/><path class="cls-19" d="M9.53,6.37A2.52,2.52,0,0,0,10,5.9c0,.06.05.11,0,.18a.8.8,0,0,0-.32.26s-.07,0-.11,0A.09.09,0,0,1,9.53,6.37Z"/><path class="cls-14" d="M7,6q0-.88,0-1.77c.11,0,.13.1.17.18A.84.84,0,0,1,7.2,5c0,.06,0,.14-.09.15s0,0,0,.06a.23.23,0,0,1,0,.33,2.82,2.82,0,0,1,.42,0s0,0,0,0a.76.76,0,0,0,0,.3s0,.06-.08.06-.13,0-.2,0A.28.28,0,0,0,7,6Z"/><path class="cls-7" d="M7.2,5a4.51,4.51,0,0,1,0-.52c.06,0,.13-.06.15.05a2,2,0,0,1,0,.42C7.32,5,7.25,4.94,7.2,5Z"/><path class="cls-23" d="M7.37,5.26c0,.06,0,.15-.09.15s-.09-.06-.08-.12,0-.14.07-.15S7.36,5.2,7.37,5.26Z"/><path class="cls-29" d="M7.35,4.9V4.48A1,1,0,0,1,7.35,4.9Z"/><path class="cls-30" d="M9.43,5.29s.08.06.09.11a.11.11,0,0,1,0,.08.18.18,0,0,1-.22,0c0-.12-.06-.09-.13-.08H9.09a.16.16,0,0,0-.15,0,.14.14,0,0,0-.1.1.37.37,0,0,0,0,.18s0,.09,0,.12a.3.3,0,0,1,.09.13s0,0,0,0l0,0s0,.06,0,.07L8.79,6s0-.06,0-.07-.1-.11-.09-.2,0-.13,0-.19a.15.15,0,0,1,.08-.19c.06-.07.12-.15.22-.15a.69.69,0,0,1,.25,0C9.27,5.22,9.32,5.35,9.43,5.29Z"/><path class="cls-19" d="M8.71,5.35c0,.06-.07.11-.06.17l0,0c-.07.08,0,.2-.07.28,0-.13,0-.25,0-.38s0-.13.13-.14Z"/><ellipse class="cls-19" cx="10.45" cy="4.99" rx="0.45" ry="0.01"/><path class="cls-31" d="M9.18,5.21a1.07,1.07,0,0,1-.25,0A.31.31,0,0,1,9.18,5.21Z"/><path class="cls-19" d="M9.81,5.18H9.64C9.7,5.11,9.75,5.13,9.81,5.18Z"/><path class="cls-19" d="M9.93,5.24l-.12-.06S9.92,5.16,9.93,5.24Z"/><path class="cls-32" d="M8.05,5.15s0,.09-.08.09-.08,0-.08-.1,0-.08.08-.08S8.05,5.09,8.05,5.15Z"/><path class="cls-19" d="M9.64,6.34s.08,0,.11,0,0,.09-.06.08S9.64,6.38,9.64,6.34Z"/><path class="cls-19" d="M8.59,5c-.06,0-.12.06-.19,0Z"/><path class="cls-19" d="M9,6.22l.11.09C9.05,6.35,9,6.32,9,6.22Z"/><path class="cls-31" d="M8.85,6.06s0-.07,0-.07.08,0,0,.09A0,0,0,0,1,8.85,6.06Z"/><path class="cls-31" d="M8.74,5.93s0-.06.07,0,0,.06,0,.09S8.74,6,8.74,5.93Z"/><path class="cls-33" d="M8.62,5.56l0,0v.21C8.61,5.68,8.64,5.61,8.62,5.56Z"/><path class="cls-23" d="M8,6.29a.14.14,0,0,1,0,.07s0,.1-.07.1a.09.09,0,0,1-.09-.08A.09.09,0,0,1,8,6.28Z"/><path class="cls-34" d="M7,6.46a.08.08,0,0,1-.08.09.07.07,0,0,1-.09-.08c0-.06,0-.1.08-.1S7,6.4,7,6.46Z"/><path class="cls-35" d="M9.78,5.35l.06,0a.17.17,0,0,1,.06.06c0,.07.08.12,0,.2s-.07.18-.16.22h0c-.05,0-.05,0-.09.07s-.07,0-.11,0a.25.25,0,0,1-.08-.27l0,0c.06,0,.12.07.18,0s-.11,0-.13,0,0-.11,0-.16l0,0A.2.2,0,0,1,9.78,5.35Z"/><path class="cls-36" d="M9.49,5.61c0,.1,0,.2.09.27s-.05.17,0,.25,0,.06-.06.06-.07-.08-.12-.08l0,0s.06-.06,0,0S9.3,6,9.27,6s-.07-.07,0-.12.06-.11,0-.17a.13.13,0,0,1,0-.06.09.09,0,0,1,0-.07.1.1,0,0,1,0-.06.52.52,0,0,0,.18,0S9.51,5.58,9.49,5.61Z"/><path class="cls-37" d="M9.41,6.08v0s0,0,0,.06-.1,0-.15,0l-.09-.07a.71.71,0,0,0-.09-.07A.08.08,0,0,1,9,6S9,6,9,5.93s.08,0,.13,0a0,0,0,0,1,0,0s0,0,.07,0S9.36,6,9.41,6.08Z"/><path class="cls-38" d="M9.58,6.13c-.11-.08-.08-.17,0-.25s.06,0,.09,0h0A.18.18,0,0,1,9.75,6Z"/><path class="cls-39" d="M9.75,5.85c.09,0,.09-.09.12-.14s0-.06.06-.07,0,0,0,.06-.1.18-.17.26S9.72,5.89,9.75,5.85Z"/><path class="cls-40" d="M9.49,5.61l0-.06s0-.06,0-.08l0-.07.08,0c.08.06,0,.09,0,.15s0,.06-.06.08Z"/><path class="cls-41" d="M9.26,6.21c0-.08.1,0,.15,0a.08.08,0,0,1,0,.08C9.35,6.32,9.31,6.24,9.26,6.21Z"/><path class="cls-42" d="M10,5.7s0,0,0-.06,0-.13-.06-.2,0,0,.06,0A.18.18,0,0,1,10,5.7Z"/><path class="cls-43" d="M9.43,6.25s0,0,0-.08V6.11c.09,0,.06.07.11.08Z"/><path class="cls-44" d="M9.75,5.85l0,.11,0,0S9.7,6,9.7,5.93s0-.08.05-.08Z"/><path class="cls-45" d="M9.06,5.93S9,6,9,6L9,6s-.07,0-.06-.1a.07.07,0,0,1,.05,0S9.07,5.87,9.06,5.93Z"/><path class="cls-46" d="M9.08,6.07c.06,0,.06,0,.09.07S9.13,6.07,9.08,6.07Z"/><path class="cls-47" d="M9.93,5.47l-.06,0,0-.06A.1.1,0,0,1,9.93,5.47Z"/><path class="cls-46" d="M8.94,5.91,9,6,8.91,6v0Z"/><path class="cls-47" d="M9.78,5.35H9.63S9.73,5.31,9.78,5.35Z"/><path class="cls-48" d="M8.94,5.91h0l-.08-.12c-.06,0,0-.08-.06-.12a.21.21,0,0,1,.06-.2s0-.11.11-.11.11,0,.17,0,0,0,0,0,0,0,0,0a.07.07,0,0,1,0,.06c-.06.06-.15,0-.21.06l0,0a.17.17,0,0,0,0,.19s.05.08,0,.13Z"/><path class="cls-49" d="M9.48,5.47l0,.08c-.07.07-.12,0-.17,0s0,0,0,0h0A.31.31,0,0,0,9.48,5.47Z"/><path class="cls-31" d="M9.29,5.47h0a.1.1,0,0,1-.09-.06l0,0,0,0c.05,0,.1,0,.13,0S9.27,5.42,9.29,5.47Z"/><path class="cls-31" d="M8.93,5.38c-.07,0,0,.09-.1.09s0-.12.1-.12S9,5.37,8.93,5.38Z"/><path class="cls-50" d="M8.93,5.38v0c.06,0,.12,0,.18,0Z"/><path class="cls-46" d="M8.77,5.67c.05,0,0,.08.06.12C8.7,5.8,8.79,5.71,8.77,5.67Z"/><path class="cls-51" d="M9.52,5.61s0-.08.06-.08,0,.1.06,0a.06.06,0,0,1,.09,0,.08.08,0,0,1,0,0s0,0-.07,0S9.57,5.66,9.52,5.61Z"/><path class="cls-52" d="M9.75,5.85a.08.08,0,0,0-.05.08h0S9.64,5.79,9.75,5.85Z"/><path class="cls-53" d="M8.94,5.53v0a.16.16,0,0,1,.1,0,.23.23,0,0,1,.11.11s.06,0,.08.08.09.12,0,.18,0,0-.06,0H9.12c0-.14-.2-.21-.2-.36A.08.08,0,0,1,8.94,5.53Z"/><path class="cls-54" d="M9.12,5.64S9.06,5.56,9,5.53s.11,0,.15,0,.09,0,.08.11l0,0A.08.08,0,0,1,9.12,5.64Z"/><path class="cls-55" d="M9.41,6.08c-.07,0-.13,0-.18,0l0,0h0C9.31,6.05,9.45,5.94,9.41,6.08Z"/><path class="cls-56" d="M9.26,5.59s0-.09-.09-.09v0h0V5.41a.1.1,0,0,1,.09.06l0,0A.09.09,0,0,1,9.26,5.59Z"/><path class="cls-37" d="M9.17,5.9a.07.07,0,0,1,.06,0L9.29,6h0a.09.09,0,0,1-.12,0h0A.08.08,0,0,1,9.17,5.9Z"/><path class="cls-57" d="M9.12,5.64h.11V5.7S9.13,5.72,9.12,5.64Z"/><path class="cls-57" d="M9.17,5.9V6s-.1,0-.11-.06A.11.11,0,0,0,9,5.87c0-.08-.11-.15-.09-.26s0-.08.06-.08,0,.23.17.25,0,0,0,.06S9.11,5.93,9.17,5.9Z"/><path class="cls-36" d="M9.17,6h.12a.05.05,0,0,1-.06.06C9.16,6.08,9.18,6,9.17,6Z"/><path class="cls-58" d="M9.17,5.47v0s-.1,0-.14,0l-.09,0C9,5.42,9.1,5.48,9.17,5.47Z"/><path d="M6.24,6.88a.42.42,0,0,1-.43.42.42.42,0,0,1-.41-.44.41.41,0,0,1,.42-.41A.43.43,0,0,1,6.24,6.88Zm-.14,0,0,.14a.14.14,0,0,1,0,.1.08.08,0,0,1-.08,0s0,0,0-.06V7a0,0,0,0,0,0,0L5.84,7l0,0a.18.18,0,0,1-.08-.09s0,0,0,0a.5.5,0,0,1,0-.13s0,0,.06,0v0s0,0,0,0v0a.11.11,0,0,1,.06-.07l0,0s0,0,0,0,0,0,0-.06l0,0a.31.31,0,0,0-.25,0l-.06,0v0a.11.11,0,0,1,0,.14l0,0a0,0,0,0,0,0,0s0,.06-.05.07l-.08,0h0s0,.06,0,.09l0,0h0s.05,0,.06,0V7a.05.05,0,0,0,0,.06l.06,0a.15.15,0,0,1,.08.16h0a.38.38,0,0,0,.44-.33S6.14,6.94,6.1,6.89Zm-.3-.17h0l0,.08a.11.11,0,0,0,0,.11l.06,0,0,0s0,0,0,0V7.1a0,0,0,0,0,0,0s0,0,0,0S6,7,6,7l0-.16a0,0,0,0,1,0,0h0l0,0h0s0,0,0,0a.38.38,0,0,0-.11-.25L6,6.55H6v0s0,.07,0,.09H6s0,0,0,0,0,0,0,0a0,0,0,0,1,0,0Zm-.07.53v0a.12.12,0,0,0-.08-.09l-.05,0A.1.1,0,0,1,5.54,7V7s0,0,0,0L5.45,7A.37.37,0,0,0,5.73,7.25Zm-.29-.43.07,0s0,0,0,0,0,0,0,0l0,0a.09.09,0,0,0,0-.1A.35.35,0,0,0,5.44,6.82Z"/><path d="M6.27,7.22l-.06,0a0,0,0,0,0,0,0v0s0,0,0,0h0a0,0,0,0,1,0,0l0,0h0l0,0s0,0,0,0h.05l0,0h0l-.05,0s0,0,0,0h0l.06,0h0s0,0,0,0h0a0,0,0,0,1,0,0,.1.1,0,0,0-.05,0h0l0,.07a0,0,0,0,1,0,0l0,0Z"/><path d="M5.31,7h0s0,0,0,0V6.84s0,0,0,0,0,0,0,0a.38.38,0,0,1,0,.1Z"/><path d="M5.66,6.33v0a0,0,0,0,1,0,0l-.07,0h0s0,0,0,0l.1,0Z"/><path d="M5.53,7.32s0,0,0,0l-.08-.06a0,0,0,0,1,0,0h0l.07.06a0,0,0,0,1,0,0Z"/><path d="M5.72,7.4l-.11,0v0h0l0,0h.05v0A0,0,0,0,1,5.72,7.4Z"/><path d="M5.33,6.61s0,0,0,0l0,.11h0s0,0,0,0,0-.07,0-.11Z"/><path d="M5.4,6.55s0,0,0,0l.08-.09h0v0l0,0,0,0Z"/><path d="M5.3,7.05l0,0h0a.47.47,0,0,0,0,.1s0,0,0,0h0L5.3,7.05Z"/><path d="M5.85,7.41h0s0,0,0,0l0,0H6l0,0-.09,0Z"/><path d="M5.79,6.34h0l0,0s0,0,0,0h.07s0,0,0,0Z"/><path d="M6,7.36s0,0,0,0v0l.06,0h0v0Z"/><path class="cls-59" d="M6.1,6.89c0,.05.05.05.1,0a.38.38,0,0,1-.44.33h0a.15.15,0,0,0-.08-.16l-.06,0a.05.05,0,0,1,0-.06V7s0,0-.06,0h0l0,0s0-.06,0-.09h0l.08,0s.05,0,.05-.07a0,0,0,0,1,0,0l0,0a.11.11,0,0,0,0-.14v0l.06,0a.31.31,0,0,1,.25,0l0,0s0,0,0,.06,0,0,0,0l0,0a.11.11,0,0,0-.06.07v0s0,0,0,0v0s0,0-.06,0a.5.5,0,0,0,0,.13s0,0,0,0A.18.18,0,0,0,5.81,7l0,0L5.9,7a0,0,0,0,1,0,0v.06s0,0,0,.06a.08.08,0,0,0,.08,0,.14.14,0,0,0,0-.1Z"/><path class="cls-60" d="M5.8,6.72l0,0a0,0,0,0,0,0,0s0,0,0,0,0,0,0,0H6s.06,0,0-.09v0H6l.07,0a.38.38,0,0,1,.11.25s0,.05,0,0h0l0,0h0a0,0,0,0,0,0,0L6,7s0,0,0,.06,0,0,0,0a0,0,0,0,1,0,0V7s0,0,0,0l0,0-.06,0a.11.11,0,0,1,0-.11l0-.08Z"/><path class="cls-60" d="M5.73,7.25A.37.37,0,0,1,5.45,7l.07,0s0,0,0,0V7a.1.1,0,0,0,.06.1l.05,0a.12.12,0,0,1,.08.09Z"/><path class="cls-60" d="M5.44,6.82a.35.35,0,0,1,.16-.26.09.09,0,0,1,0,.1l0,0s0,0,0,0,0,0,0,0Z"/><path d="M8.3,8.94h0s0,0,0,0,0-.23.08-.34,0-.26.08-.38,0,0,0,0L9,8.26l.12,0s0,0,0,0,0,.06,0,.09l.09,0s0,0,0,0a2,2,0,0,0-.07.23l-.07.23L9,9.14a.43.43,0,0,0,0,0s0,0,0,0L8.7,9.13l-.28-.08L8.3,9s0,0,0,0Zm.62.1.16-.72-.65-.14-.16.71Zm0,.13.21-.7-.08,0v0L9,8.8,9,9.06s0,0,0,0l-.11,0L8.46,9,8.34,9V9Z"/><path class="cls-61" d="M8.92,9l-.65-.15.16-.71.65.14Zm0-.17h0l0-.13c0-.12.05-.24.07-.35s0,0,0,0l-.53-.12s0,0,0,0l0,.2c0,.1-.05.2-.07.29s0,0,0,0l.16,0,.37.08S8.91,8.89,8.91,8.87Z"/><path class="cls-61" d="M9,9.17,8.33,9V9l.12,0,.35.07.11,0s0,0,0,0L9,8.8l.07-.34v0l.08,0Z"/><path d="M8.91,8.87s0,0,0,0l-.37-.08-.16,0s0,0,0,0,0-.19.07-.29l0-.2s0,0,0,0L9,8.35s0,0,0,0,0,.23-.07.35l0,.13Zm-.43-.6-.1.47.5.11L9,8.38Z"/><path class="cls-62" d="M8.48,8.27,9,8.38l-.11.47-.5-.11Zm.19.39a.2.2,0,0,0,.05.09h0a.2.2,0,0,0,.13-.06.08.08,0,0,0,0-.08.07.07,0,0,0-.07,0l0,0a0,0,0,0,1,0,0,.11.11,0,0,0,0-.11.1.1,0,0,0-.09,0H8.6a.08.08,0,0,0-.1,0,.11.11,0,0,0,0,.11.25.25,0,0,0,.11.12S8.64,8.69,8.67,8.66Z"/><path d="M8.67,8.66s-.06,0-.08,0a.25.25,0,0,1-.11-.12.11.11,0,0,1,0-.11.08.08,0,0,1,.1,0h.07a.1.1,0,0,1,.09,0,.11.11,0,0,1,0,.11,0,0,0,0,0,0,0l0,0a.07.07,0,0,1,.07,0,.08.08,0,0,1,0,.08.2.2,0,0,1-.13.06h0A.2.2,0,0,1,8.67,8.66Zm.08-.13v0a.06.06,0,0,0,0-.07.08.08,0,0,0-.08,0s0,0,0,0a.06.06,0,0,0-.09,0,.08.08,0,0,0,0,.09.26.26,0,0,0,.09.09,0,0,0,0,0,0,0s0-.06.06-.06S8.74,8.54,8.75,8.53Zm.1.14s0,0,0,0a0,0,0,0,0,0,0h0s0,0,0,0a0,0,0,0,0,0,0,.13.13,0,0,0,0,.06c0,.05,0,0,.08,0l0,0Z"/><path class="cls-63" d="M8.75,8.53s0,0,0,0-.05,0-.06.06a0,0,0,0,1,0,0,.26.26,0,0,1-.09-.09.08.08,0,0,1,0-.09.06.06,0,0,1,.09,0s0,0,0,0a.08.08,0,0,1,.08,0,.06.06,0,0,1,0,.07Z"/><path class="cls-63" d="M8.85,8.67l0,0,0,0s0,0-.08,0a.13.13,0,0,1,0-.06,0,0,0,0,1,0,0s0,0,0,0h0a0,0,0,0,1,0,0S8.85,8.65,8.85,8.67Z"/></svg>